<?xml version="1.0" standalone="no"?><!DOCTYPE svg PUBLIC "-//W3C//DTD SVG 1.1//EN" "http://www.w3.org/Graphics/SVG/1.1/DTD/svg11.dtd"><svg t="1585409563307" class="icon" viewBox="0 0 1024 1024" version="1.1" xmlns="http://www.w3.org/2000/svg" p-id="1160" xmlns:xlink="http://www.w3.org/1999/xlink" width="200" height="200"><defs><style type="text/css"></style></defs><path d="M736.938667 370.56a42.666667 42.666667 0 1 1 62.122666-58.453333l170.666667 181.333333a42.666667 42.666667 0 0 1 0 58.453333l-170.666667 181.333334a42.666667 42.666667 0 0 1-62.122666-58.453334l143.146666-152.106666-143.146666-152.106667z m-449.877334 0L143.914667 522.666667l143.146666 152.106666a42.666667 42.666667 0 0 1-62.122666 58.453334l-170.666667-181.333334a42.666667 42.666667 0 0 1 0-58.453333l170.666667-181.333333a42.666667 42.666667 0 0 1 62.122666 58.453333z" fill="#000000" p-id="1161"></path><path d="M559.130732 171.254372m41.212835 11.042946l0 0q41.212835 11.042946 30.16989 52.255781l-154.601243 576.979694q-11.042946 41.212835-52.255781 30.169889l0 0q-41.212835-11.042946-30.16989-52.255781l154.601243-576.979694q11.042946-41.212835 52.255781-30.169889Z" fill="#000000" opacity=".3" p-id="1162"></path></svg>