<?xml version="1.0" standalone="no"?><!DOCTYPE svg PUBLIC "-//W3C//DTD SVG 1.1//EN" "http://www.w3.org/Graphics/SVG/1.1/DTD/svg11.dtd"><svg t="1545836439235" class="icon" style="" viewBox="0 0 1024 1024" version="1.1" xmlns="http://www.w3.org/2000/svg" p-id="14433" xmlns:xlink="http://www.w3.org/1999/xlink" width="128" height="128"><defs><style type="text/css"></style></defs><path d="M220.024686 798.142171c138.614491 0 220.881189-73.567817 246.87104-220.756114l60.644206-343.969646L404.327131 233.416411l-58.397989 331.134537c-15.882971 109.539474-67.185371 162.589989-153.82016 159.149349-53.388434 1.729097-104.923429-21.373806-154.657646-69.307246l-13.99296 79.57504C65.206126 778.444069 130.752366 799.817874 220.024686 798.142171L220.024686 798.142171z" p-id="14434"></path><path d="M720.452023 795.575589c152.286354 0 237.227154-54.779611 254.839223-164.283977 15.401691-87.27552-49.645714-145.442377-195.1232-174.551771-66.668983-10.267794-94.495451-36.775497-83.514514-79.57504 6.73792-47.880777 39.181897-71.873829 97.383863-71.873829 51.017143 1.728366 80.697783 32.531749 88.968777 92.409417l118.078903 0c-0.96256-111.21664-66.151863-168.526263-195.567909-171.985189-133.801691 1.729097-212.022126 52.212297-234.643017 151.4496-28.271909 92.409417 34.047269 151.4496 186.994103 177.118354 68.023589 11.99616 98.132114 40.23296 90.27072 84.708937-11.657509 56.472137-55.990857 84.708206-132.999314 84.708206-81.856366-1.675703-147.028114-44.475977-195.567909-128.346697l-17.201737 97.543314C547.575954 766.465463 620.251429 800.709486 720.452023 795.575589L720.452023 795.575589z" p-id="14435"></path></svg>