<?xml version="1.0" standalone="no"?><!DOCTYPE svg PUBLIC "-//W3C//DTD SVG 1.1//EN" "http://www.w3.org/Graphics/SVG/1.1/DTD/svg11.dtd"><svg t="1545835093904" class="icon" style="" viewBox="0 0 1289 1024" version="1.1" xmlns="http://www.w3.org/2000/svg" p-id="7951" xmlns:xlink="http://www.w3.org/1999/xlink" width="161.125" height="128"><defs><style type="text/css"></style></defs><path d="M75.851852 151.703704c0 83.437037 68.266667 151.703704 151.703704 151.703703s151.703704-68.266667 151.703703-151.703703-68.266667-151.703704-151.703703-151.703704-151.703704 68.266667-151.703704 151.703704M948.148148 151.703704c0 83.437037 68.266667 151.703704 151.703704 151.703703s151.703704-68.266667 151.703704-151.703703-68.266667-151.703704-151.703704-151.703704-151.703704 68.266667-151.703704 151.703704M644.740741 1024c-125.155556 0-246.518519-30.340741-356.503704-91.022222-106.192593-56.888889-201.007407-140.325926-273.066667-242.725926-22.755556-34.133333-18.962963-79.644444 15.170371-106.192593s75.851852-18.962963 98.607407 15.170371C250.311111 773.688889 439.940741 872.296296 644.740741 872.296296s394.42963-98.607407 515.792592-273.066666c22.755556-34.133333 68.266667-41.718519 98.607408-15.170371s37.925926 72.059259 15.17037 106.192593c-72.059259 102.4-166.874074 185.837037-273.066667 242.725926-109.985185 60.681481-231.348148 91.022222-356.503703 91.022222" p-id="7952"></path></svg>