<?xml version="1.0" standalone="no"?><!DOCTYPE svg PUBLIC "-//W3C//DTD SVG 1.1//EN" "http://www.w3.org/Graphics/SVG/1.1/DTD/svg11.dtd"><svg t="1545836260651" class="icon" style="" viewBox="0 0 1024 1024" version="1.1" xmlns="http://www.w3.org/2000/svg" p-id="14183" xmlns:xlink="http://www.w3.org/1999/xlink" width="128" height="128"><defs><style type="text/css"></style></defs><path d="M96.036571 710.436571v76.8c0 12.8-6.436571 25.6-19.163428 32.036572-12.8 6.363429-25.6 12.8-44.836572 12.8H0v166.4h128c57.636571 0 96.036571-6.436571 128-12.8 25.6-6.363429 51.2-25.6 64-44.763429 19.236571-19.236571 25.6-44.763429 25.6-76.8V25.746286H95.963429v684.836571z m863.963429-166.4c-32.036571-44.763429-102.4-96.036571-211.236571-166.4-38.4-25.6-64-44.836571-70.363429-57.636571a196.827429 196.827429 0 0 1-12.8-70.363429c0-25.6 6.436571-44.763429 12.8-57.636571s19.163429-19.163429 32.036571-19.163429c12.8 0 25.6 6.363429 32.036572 12.8s6.363429 32.036571 6.363428 64v70.363429h236.763429V281.6c0-76.8-6.363429-134.436571-25.6-166.4-12.8-32.036571-44.763429-57.563429-89.6-83.163429C825.563429 12.8 768 0 704 0c-57.563429 0-108.763429 12.8-153.6 32.036571-44.836571 25.6-76.8 51.2-96.036571 83.163429S422.326857 204.8 422.326857 281.6c0 51.2 6.363429 96.036571 19.163429 128s32.036571 57.636571 51.2 76.8c19.163429 19.236571 64 51.2 121.636571 89.6 64 38.4 102.4 70.436571 115.2 89.6s25.6 57.636571 25.6 115.2c0 25.6-6.436571 44.763429-12.8 57.636571s-19.236571 19.163429-38.4 19.163429c-19.236571 0-25.6-6.363429-32.036571-12.8-6.436571-12.8-12.8-32.036571-12.8-70.436571V659.163429H435.053714v64c0 70.363429 6.363429 128 19.163429 166.4s44.836571 70.436571 96.036571 96.036571c44.763429 25.6 102.4 38.4 172.763429 38.4 64 0 115.2-12.8 160.036571-32.036571s76.8-51.2 96.036572-83.236572c19.236571-32.036571 25.6-83.236571 25.6-153.6-6.363429-102.4-19.236571-172.836571-44.763429-211.163428z" p-id="14184"></path></svg>