<?xml version="1.0" standalone="no"?><!DOCTYPE svg PUBLIC "-//W3C//DTD SVG 1.1//EN" "http://www.w3.org/Graphics/SVG/1.1/DTD/svg11.dtd"><svg t="1546700240767" class="icon" style="" viewBox="0 0 1024 1024" version="1.1" xmlns="http://www.w3.org/2000/svg" p-id="17118" xmlns:xlink="http://www.w3.org/1999/xlink" width="20" height="20"><defs><style type="text/css"></style></defs><path d="M760.5 587.3c9.2 8.9 11.3 19.2 6.3 30.8-5.1 11.9-13.8 17.8-26.4 17.8H569.8l89.8 212.5c3 7.4 3 14.7 0 21.9-3 7.1-8.1 12.4-15.2 15.6l-79.1 33.5c-7.4 3-14.7 3-21.9 0-7.1-3-12.4-8.1-15.6-15.2l-85.3-201.8-139.2 139.5c-5.6 5.6-12.4 8.5-20.1 8.5-3.6 0-7.1-0.8-10.7-2.3-11.9-5.1-17.8-13.8-17.8-26.4V150.3c0-12.5 5.9-21.3 17.8-26.4 3.6-1.5 7.1-2.3 10.7-2.3 8.1 0 14.7 2.8 20.1 8.5l457.2 457.2z" p-id="17119"></path></svg>